<svg height="512pt" viewBox="-117 0 512 512" width="512pt" xmlns="http://www.w3.org/2000/svg"><path d="m269.5 0h-262c-4.140625 0-7.5 3.355469-7.5 7.5v87.960938c0 4.144531 3.359375 7.5 7.5 7.5s7.5-3.355469 7.5-7.5v-43.460938h15v391h-12.5c-1.378906 0-2.5-1.121094-2.5-2.5v-260.320312c0-4.144532-3.359375-7.5-7.5-7.5s-7.5 3.355468-7.5 7.5v260.320312c0 9.648438 7.851562 17.5 17.5 17.5h2.265625v46.5c0 4.144531 3.355469 7.5 7.5 7.5h60.125c4.144531 0 7.5-3.355469 7.5-7.5v-46.5h1.480469c9.648437 0 17.5-7.851562 17.5-17.5v-246.347656c0-13.582032 11.046875-24.628906 24.628906-24.628906s24.628906 11.046874 24.628906 24.628906v246.347656c0 9.648438 7.851563 17.5 17.5 17.5h2.578125v46.5c0 4.144531 3.359375 7.5 7.5 7.5h60.128907c4.140624 0 7.5-3.355469 7.5-7.5v-46.5h1.164062c9.648438 0 17.5-7.851562 17.5-17.5v-24.9375c0-4.140625-3.359375-7.5-7.5-7.5s-7.5 3.359375-7.5 7.5v24.9375c0 1.378906-1.121094 2.5-2.5 2.5h-12.5v-391h15v331.769531c0 4.144531 3.359375 7.5 7.5 7.5s7.5-3.355469 7.5-7.5v-376.269531c0-4.144531-3.359375-7.5-7.5-7.5zm-189.605469 497h-45.128906v-39h45.128906zm163.441407 0h-45.128907v-39h45.128907zm-11.335938-54h-51.371094c-1.375 0-2.5-1.121094-2.5-2.5v-246.347656c0-21.851563-17.777344-39.628906-39.628906-39.628906s-39.628906 17.777343-39.628906 39.628906v246.347656c0 1.378906-1.125 2.5-2.5 2.5h-51.371094v-391h70v44.5c0 12.957031 10.542969 23.5 23.5 23.5s23.5-10.542969 23.5-23.5v-44.5h70zm-102-391h17v44.5c0 4.6875-3.8125 8.5-8.5 8.5s-8.5-3.8125-8.5-8.5zm-115-15v-22h247v22zm0 0"/><path d="m7.5 155.269531c4.140625 0 7.5-3.355469 7.5-7.5v-20.101562c0-4.144531-3.359375-7.5-7.5-7.5s-7.5 3.355469-7.5 7.5v20.101562c0 4.140625 3.359375 7.5 7.5 7.5zm0 0"/></svg>